<svg id="visual" viewBox="0 0 400 1080" width="400" height="1080" xmlns="http://www.w3.org/2000/svg" xmlns:xlink="http://www.w3.org/1999/xlink" version="1.1"><path d="M222 1080L221 1054.3C220 1028.7 218 977.3 217.7 925.8C217.3 874.3 218.7 822.7 235.7 771.2C252.7 719.7 285.3 668.3 282.8 617C280.3 565.7 242.7 514.3 227.8 463C213 411.7 221 360.3 239.7 308.8C258.3 257.3 287.7 205.7 295 154.2C302.3 102.7 287.7 51.3 280.3 25.7L273 0L400 0L400 25.7C400 51.3 400 102.7 400 154.2C400 205.7 400 257.3 400 308.8C400 360.3 400 411.7 400 463C400 514.3 400 565.7 400 617C400 668.3 400 719.7 400 771.2C400 822.7 400 874.3 400 925.8C400 977.3 400 1028.7 400 1054.3L400 1080Z" fill="#6F1E81" stroke-linecap="round" stroke-linejoin="miter"></path></svg>